<svg width="407" height="315" viewBox="0 0 407 315" fill="none" xmlns="http://www.w3.org/2000/svg">
<mask id="mask0_425_1796" style="mask-type:alpha" maskUnits="userSpaceOnUse" x="0" y="63" width="395" height="252">
<path d="M14.0002 314.47V245.299C14.8814 238.103 20.4327 224.239 35.5887 226.354H164.238C179.394 224.239 184.946 238.103 185.827 245.299V314.47" stroke="#2A666B" stroke-width="27.6719"/>
<circle cx="99.913" cy="143.747" r="66.5278" stroke="#2A666B" stroke-width="27.6719"/>
<path d="M263.953 214.401H214.334V74.4312H264.363C278.442 74.4312 290.562 77.2334 300.722 82.8377C310.883 88.3964 318.697 96.3927 324.164 106.827C329.678 117.261 332.434 129.745 332.434 144.28C332.434 158.86 329.678 171.39 324.164 181.869C318.697 192.349 310.837 200.391 300.585 205.995C290.379 211.599 278.168 214.401 263.953 214.401ZM243.928 189.045H262.722C271.471 189.045 278.829 187.496 284.798 184.398C290.812 181.254 295.323 176.402 298.33 169.841C301.383 163.234 302.909 154.714 302.909 144.28C302.909 133.937 301.383 125.485 298.33 118.924C295.323 112.363 290.835 107.533 284.866 104.435C278.897 101.336 271.539 99.7872 262.791 99.7872H243.928V189.045ZM393.572 74.4312V214.401H363.979V74.4312H393.572Z" fill="#2A666B"/>
<line x1="195.528" y1="303.188" x2="394.766" y2="303.188" stroke="#2A666B" stroke-width="22.1375"/>
</mask>
<g mask="url(#mask0_425_1796)">
<rect x="-53.5188" y="3.2251" width="532.408" height="358.628" fill="white"/>
</g>
</svg>
